<mxfile host="app.diagrams.net" agent="Mozilla/5.0 (Windows NT 10.0; Win64; x64) AppleWebKit/537.36 (KHTML, like Gecko) Chrome/128.0.0.0 Safari/537.36" version="24.7.8">
  <diagram name="Página-1" id="O0SCB5UXBAoEZHSxgwkn">
    <mxGraphModel dx="1687" dy="918" grid="1" gridSize="10" guides="1" tooltips="1" connect="1" arrows="1" fold="1" page="1" pageScale="1" pageWidth="827" pageHeight="1169" math="0" shadow="0">
      <root>
        <mxCell id="0" />
        <mxCell id="1" parent="0" />
        <mxCell id="YYEzAmgfptnNB4qbXmZl-147" value="" style="html=1;whiteSpace=wrap;" vertex="1" parent="1">
          <mxGeometry x="133" y="160" width="561" height="800" as="geometry" />
        </mxCell>
        <mxCell id="YYEzAmgfptnNB4qbXmZl-148" value="" style="ellipse;html=1;shape=startState;fillColor=#000000;strokeColor=#ff0000;" vertex="1" parent="1">
          <mxGeometry x="352" y="175" width="30" height="30" as="geometry" />
        </mxCell>
        <mxCell id="YYEzAmgfptnNB4qbXmZl-149" value="" style="edgeStyle=orthogonalEdgeStyle;html=1;verticalAlign=bottom;endArrow=open;endSize=8;strokeColor=#ff0000;rounded=0;" edge="1" parent="1" source="YYEzAmgfptnNB4qbXmZl-148">
          <mxGeometry relative="1" as="geometry">
            <mxPoint x="367" y="265" as="targetPoint" />
          </mxGeometry>
        </mxCell>
        <mxCell id="YYEzAmgfptnNB4qbXmZl-150" style="edgeStyle=orthogonalEdgeStyle;rounded=0;orthogonalLoop=1;jettySize=auto;html=1;entryX=0.5;entryY=0;entryDx=0;entryDy=0;" edge="1" parent="1" source="YYEzAmgfptnNB4qbXmZl-151" target="YYEzAmgfptnNB4qbXmZl-153">
          <mxGeometry relative="1" as="geometry" />
        </mxCell>
        <mxCell id="YYEzAmgfptnNB4qbXmZl-151" value="abrir a tela inicial do chat" style="html=1;whiteSpace=wrap;" vertex="1" parent="1">
          <mxGeometry x="312" y="265" width="110" height="50" as="geometry" />
        </mxCell>
        <mxCell id="YYEzAmgfptnNB4qbXmZl-152" style="edgeStyle=orthogonalEdgeStyle;rounded=0;orthogonalLoop=1;jettySize=auto;html=1;entryX=0.5;entryY=0;entryDx=0;entryDy=0;" edge="1" parent="1" source="YYEzAmgfptnNB4qbXmZl-153">
          <mxGeometry relative="1" as="geometry">
            <mxPoint x="367" y="465" as="targetPoint" />
          </mxGeometry>
        </mxCell>
        <mxCell id="YYEzAmgfptnNB4qbXmZl-153" value="selecionar a pessoa com quem quiser conversar" style="html=1;whiteSpace=wrap;" vertex="1" parent="1">
          <mxGeometry x="312" y="365" width="110" height="50" as="geometry" />
        </mxCell>
        <mxCell id="YYEzAmgfptnNB4qbXmZl-154" style="edgeStyle=orthogonalEdgeStyle;rounded=0;orthogonalLoop=1;jettySize=auto;html=1;entryX=0;entryY=0.5;entryDx=0;entryDy=0;" edge="1" parent="1" source="YYEzAmgfptnNB4qbXmZl-172" target="YYEzAmgfptnNB4qbXmZl-151">
          <mxGeometry relative="1" as="geometry">
            <Array as="points">
              <mxPoint x="253" y="290" />
            </Array>
          </mxGeometry>
        </mxCell>
        <mxCell id="YYEzAmgfptnNB4qbXmZl-155" style="edgeStyle=orthogonalEdgeStyle;rounded=0;orthogonalLoop=1;jettySize=auto;html=1;entryX=0.5;entryY=0;entryDx=0;entryDy=0;" edge="1" parent="1" target="YYEzAmgfptnNB4qbXmZl-160">
          <mxGeometry relative="1" as="geometry">
            <Array as="points">
              <mxPoint x="538" y="515" />
            </Array>
            <mxPoint x="422" y="515" as="sourcePoint" />
          </mxGeometry>
        </mxCell>
        <mxCell id="YYEzAmgfptnNB4qbXmZl-157" value="sim" style="text;html=1;align=center;verticalAlign=middle;resizable=0;points=[];autosize=1;strokeColor=none;fillColor=none;" vertex="1" parent="1">
          <mxGeometry x="433" y="485" width="40" height="30" as="geometry" />
        </mxCell>
        <mxCell id="YYEzAmgfptnNB4qbXmZl-158" value="não" style="text;html=1;align=center;verticalAlign=middle;resizable=0;points=[];autosize=1;strokeColor=none;fillColor=none;" vertex="1" parent="1">
          <mxGeometry x="263" y="485" width="40" height="30" as="geometry" />
        </mxCell>
        <mxCell id="YYEzAmgfptnNB4qbXmZl-159" style="edgeStyle=orthogonalEdgeStyle;rounded=0;orthogonalLoop=1;jettySize=auto;html=1;entryX=0.5;entryY=0;entryDx=0;entryDy=0;" edge="1" parent="1" source="YYEzAmgfptnNB4qbXmZl-160">
          <mxGeometry relative="1" as="geometry">
            <mxPoint x="538" y="645" as="targetPoint" />
          </mxGeometry>
        </mxCell>
        <mxCell id="YYEzAmgfptnNB4qbXmZl-160" value="digite sua mensagem" style="html=1;whiteSpace=wrap;" vertex="1" parent="1">
          <mxGeometry x="483" y="535" width="110" height="50" as="geometry" />
        </mxCell>
        <mxCell id="YYEzAmgfptnNB4qbXmZl-161" style="edgeStyle=orthogonalEdgeStyle;rounded=0;orthogonalLoop=1;jettySize=auto;html=1;" edge="1" parent="1" target="YYEzAmgfptnNB4qbXmZl-167">
          <mxGeometry relative="1" as="geometry">
            <mxPoint x="383" y="670" as="targetPoint" />
            <Array as="points">
              <mxPoint x="378" y="695" />
            </Array>
            <mxPoint x="483" y="695" as="sourcePoint" />
          </mxGeometry>
        </mxCell>
        <mxCell id="YYEzAmgfptnNB4qbXmZl-162" style="edgeStyle=orthogonalEdgeStyle;rounded=0;orthogonalLoop=1;jettySize=auto;html=1;entryX=1;entryY=0.5;entryDx=0;entryDy=0;" edge="1" parent="1" target="YYEzAmgfptnNB4qbXmZl-169">
          <mxGeometry relative="1" as="geometry">
            <Array as="points">
              <mxPoint x="643" y="695" />
              <mxPoint x="643" y="790" />
            </Array>
            <mxPoint x="593" y="695" as="sourcePoint" />
          </mxGeometry>
        </mxCell>
        <mxCell id="YYEzAmgfptnNB4qbXmZl-164" value="sim" style="text;html=1;align=center;verticalAlign=middle;resizable=0;points=[];autosize=1;strokeColor=none;fillColor=none;" vertex="1" parent="1">
          <mxGeometry x="603" y="665" width="40" height="30" as="geometry" />
        </mxCell>
        <mxCell id="YYEzAmgfptnNB4qbXmZl-165" value="não" style="text;html=1;align=center;verticalAlign=middle;resizable=0;points=[];autosize=1;strokeColor=none;fillColor=none;" vertex="1" parent="1">
          <mxGeometry x="433" y="665" width="40" height="30" as="geometry" />
        </mxCell>
        <mxCell id="YYEzAmgfptnNB4qbXmZl-166" style="edgeStyle=orthogonalEdgeStyle;rounded=0;orthogonalLoop=1;jettySize=auto;html=1;" edge="1" parent="1" source="YYEzAmgfptnNB4qbXmZl-167" target="YYEzAmgfptnNB4qbXmZl-160">
          <mxGeometry relative="1" as="geometry">
            <Array as="points">
              <mxPoint x="378" y="560" />
            </Array>
          </mxGeometry>
        </mxCell>
        <mxCell id="YYEzAmgfptnNB4qbXmZl-167" value="apague sua mensagen" style="html=1;whiteSpace=wrap;" vertex="1" parent="1">
          <mxGeometry x="323" y="575" width="110" height="50" as="geometry" />
        </mxCell>
        <mxCell id="YYEzAmgfptnNB4qbXmZl-168" style="edgeStyle=orthogonalEdgeStyle;rounded=0;orthogonalLoop=1;jettySize=auto;html=1;entryX=0.5;entryY=0;entryDx=0;entryDy=0;" edge="1" parent="1" source="YYEzAmgfptnNB4qbXmZl-169" target="YYEzAmgfptnNB4qbXmZl-170">
          <mxGeometry relative="1" as="geometry" />
        </mxCell>
        <mxCell id="YYEzAmgfptnNB4qbXmZl-169" value="enviar mensagem" style="html=1;whiteSpace=wrap;" vertex="1" parent="1">
          <mxGeometry x="483" y="765" width="110" height="50" as="geometry" />
        </mxCell>
        <mxCell id="YYEzAmgfptnNB4qbXmZl-170" value="" style="ellipse;html=1;shape=endState;fillColor=#000000;strokeColor=#ff0000;" vertex="1" parent="1">
          <mxGeometry x="352" y="865" width="30" height="30" as="geometry" />
        </mxCell>
        <mxCell id="YYEzAmgfptnNB4qbXmZl-171" value="" style="edgeStyle=orthogonalEdgeStyle;rounded=0;orthogonalLoop=1;jettySize=auto;html=1;entryX=0;entryY=0.5;entryDx=0;entryDy=0;" edge="1" parent="1" target="YYEzAmgfptnNB4qbXmZl-172">
          <mxGeometry relative="1" as="geometry">
            <Array as="points">
              <mxPoint x="253" y="515" />
            </Array>
            <mxPoint x="312" y="515" as="sourcePoint" />
            <mxPoint x="312" y="290" as="targetPoint" />
          </mxGeometry>
        </mxCell>
        <mxCell id="YYEzAmgfptnNB4qbXmZl-172" value="&#xa;&lt;span style=&quot;color: rgb(0, 0, 0); font-family: Helvetica; font-size: 12px; font-style: normal; font-variant-ligatures: normal; font-variant-caps: normal; font-weight: 400; letter-spacing: normal; orphans: 2; text-align: center; text-indent: 0px; text-transform: none; widows: 2; word-spacing: 0px; -webkit-text-stroke-width: 0px; white-space: normal; background-color: rgb(251, 251, 251); text-decoration-thickness: initial; text-decoration-style: initial; text-decoration-color: initial; display: inline !important; float: none;&quot;&gt;selecionou a pessoa certa?&lt;/span&gt;&#xa;&#xa;" style="rhombus;whiteSpace=wrap;html=1;" vertex="1" parent="1">
          <mxGeometry x="327" y="470" width="80" height="80" as="geometry" />
        </mxCell>
        <mxCell id="YYEzAmgfptnNB4qbXmZl-173" value="&#xa;&lt;span style=&quot;color: rgb(0, 0, 0); font-family: Helvetica; font-size: 12px; font-style: normal; font-variant-ligatures: normal; font-variant-caps: normal; font-weight: 400; letter-spacing: normal; orphans: 2; text-align: center; text-indent: 0px; text-transform: none; widows: 2; word-spacing: 0px; -webkit-text-stroke-width: 0px; white-space: normal; background-color: rgb(251, 251, 251); text-decoration-thickness: initial; text-decoration-style: initial; text-decoration-color: initial; display: inline !important; float: none;&quot;&gt;mensagem está correta?&lt;/span&gt;&#xa;&#xa;" style="rhombus;whiteSpace=wrap;html=1;" vertex="1" parent="1">
          <mxGeometry x="498" y="650" width="80" height="80" as="geometry" />
        </mxCell>
      </root>
    </mxGraphModel>
  </diagram>
</mxfile>
